<svg width="125" height="24" viewBox="0 0 125 24" fill="none" xmlns="http://www.w3.org/2000/svg">
<path d="M14.8592 11.5473L10.5538 11.8123C10.4802 11.4443 10.322 11.1131 10.0791 10.8187C9.83625 10.517 9.5161 10.2778 9.11868 10.1011C8.72861 9.91715 8.26127 9.82516 7.71665 9.82516C6.98804 9.82516 6.3735 9.97971 5.87304 10.2888C5.37259 10.5906 5.12236 10.9953 5.12236 11.5032C5.12236 11.908 5.28427 12.2502 5.6081 12.5298C5.93192 12.8095 6.48758 13.034 7.27507 13.2033L10.3441 13.8215C11.9926 14.16 13.2217 14.7046 14.0313 15.4553C14.8408 16.206 15.2456 17.1922 15.2456 18.4139C15.2456 19.5253 14.9181 20.5004 14.2631 21.3394C13.6155 22.1784 12.7249 22.8334 11.5915 23.3045C10.4655 23.7681 9.16651 24 7.69457 24C5.44986 24 3.66145 23.5326 2.32935 22.5979C1.0046 21.6559 0.228151 20.3753 0 18.7562L4.62557 18.5133C4.76541 19.1977 5.10396 19.7203 5.64121 20.0809C6.17847 20.4342 6.8666 20.6108 7.70561 20.6108C8.5299 20.6108 9.19227 20.4526 9.69273 20.1361C10.2006 19.8123 10.4581 19.3965 10.4655 18.8886C10.4581 18.4618 10.2778 18.1122 9.92456 17.8399C9.5713 17.5602 9.02668 17.3468 8.29071 17.1996L5.35419 16.6145C3.69825 16.2833 2.4655 15.7092 1.65593 14.8923C0.853726 14.0754 0.452622 13.034 0.452622 11.7681C0.452622 10.6789 0.74701 9.74052 1.33579 8.95303C1.93192 8.16554 2.76725 7.55837 3.84177 7.13151C4.92364 6.70464 6.18951 6.49121 7.63937 6.49121C9.78105 6.49121 11.4664 6.94383 12.6955 7.84907C13.9319 8.75432 14.6532 9.98707 14.8592 11.5473Z" fill="#1A2332"/>
<path d="M25.8684 24C24.1316 24 22.6375 23.632 21.3864 22.896C20.1426 22.1527 19.1858 21.1223 18.5161 19.8049C17.8537 18.4875 17.5225 16.9714 17.5225 15.2566C17.5225 13.5197 17.8574 11.9963 18.5271 10.6862C19.2042 9.36885 20.1647 8.34218 21.4085 7.6062C22.6523 6.86288 24.1316 6.49121 25.8464 6.49121C27.3257 6.49121 28.621 6.75984 29.7323 7.2971C30.8436 7.83436 31.7231 8.58873 32.3707 9.56021C33.0184 10.5317 33.3753 11.6724 33.4416 12.9825H29.0037C28.8786 12.1361 28.5474 11.4553 28.0101 10.9402C27.4802 10.4176 26.7847 10.1563 25.9236 10.1563C25.195 10.1563 24.5584 10.3551 24.0138 10.7525C23.4765 11.1425 23.057 11.7129 22.7553 12.4636C22.4535 13.2143 22.3027 14.1232 22.3027 15.1904C22.3027 16.2723 22.4499 17.1922 22.7442 17.9503C23.046 18.7083 23.4692 19.2861 24.0138 19.6835C24.5584 20.0809 25.195 20.2796 25.9236 20.2796C26.4609 20.2796 26.943 20.1692 27.3698 19.9484C27.804 19.7276 28.161 19.4075 28.4407 18.988C28.7277 18.5611 28.9154 18.0496 29.0037 17.4535H33.4416C33.368 18.7488 33.0147 19.8896 32.3818 20.8758C31.7562 21.8546 30.8914 22.62 29.7875 23.172C28.6835 23.724 27.3772 24 25.8684 24Z" fill="#1A2332"/>
<path d="M66.3332 6.71205V10.2447H55.8677V6.71205H66.3332ZM58.2633 23.6688V5.48666C58.2633 4.25759 58.5024 3.23827 58.9808 2.4287C59.4666 1.61914 60.1289 1.01196 60.968 0.607176C61.807 0.202392 62.76 0 63.8272 0C64.5484 0 65.2071 0.0551982 65.8033 0.165595C66.4068 0.27599 66.8557 0.375346 67.1501 0.463663L66.3111 3.99632C66.1271 3.93744 65.899 3.88225 65.6266 3.83073C65.3617 3.77921 65.0894 3.75345 64.8097 3.75345C64.1179 3.75345 63.6358 3.91536 63.3635 4.23919C63.0912 4.55566 62.9551 5.00092 62.9551 5.57498V23.6688H58.2633Z" fill="#1A2332"/>
<path d="M78.3249 6.71205V10.2447H67.8594V6.71205H78.3249ZM70.255 23.6688V5.48666C70.255 4.25759 70.4942 3.23827 70.9725 2.4287C71.4583 1.61914 72.1207 1.01196 72.9597 0.607176C73.7987 0.202392 74.7518 0 75.8189 0C76.5402 0 77.1989 0.0551982 77.795 0.165595C78.3985 0.27599 78.8474 0.375346 79.1418 0.463663L78.3028 3.99632C78.1188 3.93744 77.8907 3.88225 77.6184 3.83073C77.3534 3.77921 77.0811 3.75345 76.8014 3.75345C76.1096 3.75345 75.6276 3.91536 75.3553 4.23919C75.0829 4.55566 74.9468 5.00092 74.9468 5.57498V23.6688H70.255Z" fill="#1A2332"/>
<path d="M88.2522 24C86.5374 24 85.0544 23.6357 83.8033 22.9071C82.5595 22.1711 81.599 21.1481 80.9219 19.8381C80.2449 18.5207 79.9063 16.9936 79.9063 15.2567C79.9063 13.5051 80.2449 11.9742 80.9219 10.6642C81.599 9.34683 82.5595 8.32383 83.8033 7.59522C85.0544 6.85925 86.5374 6.49126 88.2522 6.49126C89.967 6.49126 91.4463 6.85925 92.6901 7.59522C93.9413 8.32383 94.9054 9.34683 95.5825 10.6642C96.2596 11.9742 96.5981 13.5051 96.5981 15.2567C96.5981 16.9936 96.2596 18.5207 95.5825 19.8381C94.9054 21.1481 93.9413 22.1711 92.6901 22.9071C91.4463 23.6357 89.967 24 88.2522 24ZM88.2743 20.3569C89.0544 20.3569 89.7058 20.1362 90.2283 19.6946C90.7508 19.2456 91.1446 18.6348 91.4095 17.862C91.6818 17.0892 91.818 16.2098 91.818 15.2236C91.818 14.2374 91.6818 13.3579 91.4095 12.5851C91.1446 11.8123 90.7508 11.2015 90.2283 10.7525C89.7058 10.3036 89.0544 10.0791 88.2743 10.0791C87.4868 10.0791 86.8244 10.3036 86.2872 10.7525C85.7573 11.2015 85.3562 11.8123 85.0839 12.5851C84.8189 13.3579 84.6864 14.2374 84.6864 15.2236C84.6864 16.2098 84.8189 17.0892 85.0839 17.862C85.3562 18.6348 85.7573 19.2456 86.2872 19.6946C86.8244 20.1362 87.4868 20.3569 88.2743 20.3569Z" fill="#1A2332"/>
<path d="M104.359 1.0598V23.6688H99.6561V1.0598H104.359Z" fill="#1A2332"/>
<path d="M114.375 23.9448C113.087 23.9448 111.92 23.6136 110.875 22.9512C109.837 22.2815 109.013 21.299 108.402 20.0037C107.799 18.701 107.497 17.104 107.497 15.2125C107.497 13.2695 107.81 11.6541 108.435 10.3661C109.061 9.07084 109.893 8.10304 110.93 7.46274C111.975 6.81509 113.12 6.49126 114.364 6.49126C115.313 6.49126 116.104 6.65318 116.737 6.977C117.377 7.29347 117.893 7.69089 118.283 8.16927C118.68 8.64029 118.982 9.10396 119.188 9.56026H119.331V1.0598H124.023V23.6688H119.387V20.9531H119.188C118.967 21.4241 118.654 21.8914 118.249 22.3551C117.852 22.8114 117.333 23.1904 116.693 23.4922C116.06 23.7939 115.287 23.9448 114.375 23.9448ZM115.865 20.2024C116.623 20.2024 117.263 19.9963 117.786 19.5842C118.316 19.1647 118.72 18.5796 119 17.8289C119.287 17.0782 119.431 16.1987 119.431 15.1904C119.431 14.1822 119.291 13.3063 119.011 12.563C118.732 11.8197 118.327 11.2456 117.797 10.8408C117.267 10.4361 116.623 10.2337 115.865 10.2337C115.092 10.2337 114.441 10.4434 113.911 10.8629C113.381 11.2824 112.98 11.8638 112.708 12.6072C112.435 13.3505 112.299 14.2116 112.299 15.1904C112.299 16.1766 112.435 17.0488 112.708 17.8068C112.987 18.5575 113.388 19.1463 113.911 19.5731C114.441 19.9926 115.092 20.2024 115.865 20.2024Z" fill="#1A2332"/>
<path d="M114.375 23.9448C113.087 23.9448 111.92 23.6136 110.875 22.9512C109.837 22.2815 109.013 21.299 108.402 20.0037C107.799 18.701 107.497 17.104 107.497 15.2125C107.497 13.2695 107.81 11.6541 108.435 10.3661C109.061 9.07084 109.893 8.10304 110.93 7.46274C111.975 6.81509 113.12 6.49126 114.364 6.49126C115.313 6.49126 116.104 6.65318 116.737 6.977C117.377 7.29347 117.893 7.69089 118.283 8.16927C118.68 8.64029 118.982 9.10396 119.188 9.56026H119.331V1.0598H124.023V23.6688H119.387V20.9531H119.188C118.967 21.4241 118.654 21.8914 118.249 22.3551C117.852 22.8114 117.333 23.1904 116.693 23.4922C116.06 23.7939 115.287 23.9448 114.375 23.9448ZM115.865 20.2024C116.623 20.2024 117.263 19.9963 117.786 19.5842C118.316 19.1647 118.72 18.5796 119 17.8289C119.287 17.0782 119.431 16.1987 119.431 15.1904C119.431 14.1822 119.291 13.3063 119.011 12.563C118.732 11.8197 118.327 11.2456 117.797 10.8408C117.267 10.4361 116.623 10.2337 115.865 10.2337C115.092 10.2337 114.441 10.4434 113.911 10.8629C113.381 11.2824 112.98 11.8638 112.708 12.6072C112.435 13.3505 112.299 14.2116 112.299 15.1904C112.299 16.1766 112.435 17.0488 112.708 17.8068C112.987 18.5575 113.388 19.1463 113.911 19.5731C114.441 19.9926 115.092 20.2024 115.865 20.2024Z" fill="#1A2332"/>
<path d="M42.8835 23.9451C41.5956 23.9451 40.429 23.6139 39.384 22.9515C38.3462 22.2818 37.522 21.2993 36.9111 20.004C36.3076 18.7013 36.0059 17.1042 36.0059 15.2128C36.0059 13.2698 36.3186 11.6544 36.9442 10.3664C37.5698 9.07112 38.4015 8.10332 39.4392 7.46302C40.4842 6.81537 41.6287 6.49154 42.8725 6.49154C43.8219 6.49154 44.613 6.65345 45.246 6.97728C45.8863 7.29375 46.4014 7.69117 46.7915 8.16955C47.1889 8.64057 47.4907 9.10424 47.6967 9.56054H47.8403V6.49144H52.5321V23.6691H47.8955V20.9534H47.6967C47.476 21.4244 47.1632 21.8917 46.7584 22.3554C46.361 22.8117 45.8421 23.1907 45.2018 23.4925C44.5689 23.7942 43.7961 23.9451 42.8835 23.9451ZM44.3738 20.2027C45.1319 20.2027 45.7722 19.9966 46.2947 19.5845C46.8246 19.165 47.2294 18.5799 47.5091 17.8292C47.7961 17.0785 47.9396 16.199 47.9396 15.1907C47.9396 14.1824 47.7998 13.3066 47.5201 12.5633C47.2404 11.82 46.8357 11.2459 46.3058 10.8411C45.7759 10.4363 45.1319 10.2339 44.3738 10.2339C43.6011 10.2339 42.9497 10.4437 42.4198 10.8632C41.8899 11.2827 41.4888 11.8641 41.2165 12.6075C40.9442 13.3508 40.8081 14.2119 40.8081 15.1907C40.8081 16.1769 40.9442 17.049 41.2165 17.8071C41.4962 18.5578 41.8973 19.1466 42.4198 19.5734C42.9497 19.9929 43.6011 20.2027 44.3738 20.2027Z" fill="#1A2332"/>
</svg>
