<svg width="197" height="58" viewBox="0 0 197 58" fill="none" xmlns="http://www.w3.org/2000/svg">
<path d="M2 20L46.4667 19.9998L60 0H22C10.9543 0 2 8.95431 2 20Z" fill="#000000"/>
<path d="M60 38L15.5333 38.0002L2 58L40 58C51.0457 58 60 49.0457 60 38Z" fill="#000000"/>
<path d="M60 34L15.5333 33.9999L2 24L50 24C55.5228 24 60 28.4772 60 34Z" fill="#000000"/>
<path d="M86.8592 28.5473L82.5538 28.8123C82.4802 28.4443 82.322 28.1131 82.0791 27.8187C81.8362 27.517 81.5161 27.2778 81.1187 27.1011C80.7286 26.9172 80.2613 26.8252 79.7167 26.8252C78.988 26.8252 78.3735 26.9797 77.873 27.2888C77.3726 27.5906 77.1224 27.9953 77.1224 28.5032C77.1224 28.908 77.2843 29.2502 77.6081 29.5298C77.9319 29.8095 78.4876 30.034 79.2751 30.2033L82.3441 30.8215C83.9926 31.16 85.2217 31.7046 86.0313 32.4553C86.8408 33.206 87.2456 34.1922 87.2456 35.4139C87.2456 36.5253 86.9181 37.5004 86.2631 38.3394C85.6155 39.1784 84.7249 39.8334 83.5915 40.3045C82.4655 40.7681 81.1665 41 79.6946 41C77.4499 41 75.6615 40.5326 74.3293 39.5979C73.0046 38.6559 72.2282 37.3753 72 35.7562L76.6256 35.5133C76.7654 36.1977 77.104 36.7203 77.6412 37.0809C78.1785 37.4342 78.8666 37.6108 79.7056 37.6108C80.5299 37.6108 81.1923 37.4526 81.6927 37.1361C82.2006 36.8123 82.4581 36.3965 82.4655 35.8886C82.4581 35.4618 82.2778 35.1122 81.9246 34.8399C81.5713 34.5602 81.0267 34.3468 80.2907 34.1996L77.3542 33.6145C75.6983 33.2833 74.4655 32.7092 73.6559 31.8923C72.8537 31.0754 72.4526 30.034 72.4526 28.7681C72.4526 27.6789 72.747 26.7405 73.3358 25.953C73.9319 25.1655 74.7672 24.5584 75.8418 24.1315C76.9236 23.7046 78.1895 23.4912 79.6394 23.4912C81.781 23.4912 83.4664 23.9438 84.6955 24.8491C85.9319 25.7543 86.6532 26.9871 86.8592 28.5473Z" fill="#000000"/>
<path d="M97.8684 41C96.1316 41 94.6375 40.632 93.3864 39.896C92.1426 39.1527 91.1858 38.1223 90.5161 36.8049C89.8537 35.4875 89.5225 33.9714 89.5225 32.2566C89.5225 30.5197 89.8574 28.9963 90.5271 27.6862C91.2042 26.3689 92.1647 25.3422 93.4085 24.6062C94.6523 23.8629 96.1316 23.4912 97.8464 23.4912C99.3257 23.4912 100.621 23.7598 101.732 24.2971C102.844 24.8344 103.723 25.5887 104.371 26.5602C105.018 27.5317 105.375 28.6724 105.442 29.9825H101.004C100.879 29.1361 100.547 28.4553 100.01 27.9402C99.4802 27.4176 98.7847 27.1563 97.9236 27.1563C97.195 27.1563 96.5584 27.3551 96.0138 27.7525C95.4765 28.1425 95.057 28.7129 94.7553 29.4636C94.4535 30.2143 94.3027 31.1232 94.3027 32.1904C94.3027 33.2723 94.4499 34.1922 94.7442 34.9503C95.046 35.7083 95.4692 36.2861 96.0138 36.6835C96.5584 37.0809 97.195 37.2796 97.9236 37.2796C98.4609 37.2796 98.943 37.1692 99.3698 36.9484C99.804 36.7276 100.161 36.4075 100.441 35.988C100.728 35.5611 100.915 35.0496 101.004 34.4535H105.442C105.368 35.7488 105.015 36.8896 104.382 37.8758C103.756 38.8546 102.891 39.62 101.787 40.172C100.684 40.724 99.3772 41 97.8684 41Z" fill="#000000"/>
<path d="M138.333 23.7121V27.2447H127.868V23.7121H138.333ZM130.263 40.6688V22.4867C130.263 21.2576 130.502 20.2383 130.981 19.4287C131.467 18.6191 132.129 18.012 132.968 17.6072C133.807 17.2024 134.76 17 135.827 17C136.548 17 137.207 17.0552 137.803 17.1656C138.407 17.276 138.856 17.3753 139.15 17.4637L138.311 20.9963C138.127 20.9374 137.899 20.8822 137.627 20.8307C137.362 20.7792 137.089 20.7535 136.81 20.7535C136.118 20.7535 135.636 20.9154 135.364 21.2392C135.091 21.5557 134.955 22.0009 134.955 22.575V40.6688H130.263Z" fill="#000000"/>
<path d="M150.325 23.7121V27.2447H139.859V23.7121H150.325ZM142.255 40.6688V22.4867C142.255 21.2576 142.494 20.2383 142.973 19.4287C143.458 18.6191 144.121 18.012 144.96 17.6072C145.799 17.2024 146.752 17 147.819 17C148.54 17 149.199 17.0552 149.795 17.1656C150.398 17.276 150.847 17.3753 151.142 17.4637L150.303 20.9963C150.119 20.9374 149.891 20.8822 149.618 20.8307C149.353 20.7792 149.081 20.7535 148.801 20.7535C148.11 20.7535 147.628 20.9154 147.355 21.2392C147.083 21.5557 146.947 22.0009 146.947 22.575V40.6688H142.255Z" fill="#000000"/>
<path d="M160.252 41C158.537 41 157.054 40.6357 155.803 39.9071C154.559 39.1711 153.599 38.1481 152.922 36.8381C152.245 35.5207 151.906 33.9936 151.906 32.2567C151.906 30.5051 152.245 28.9742 152.922 27.6642C153.599 26.3468 154.559 25.3238 155.803 24.5952C157.054 23.8592 158.537 23.4913 160.252 23.4913C161.967 23.4913 163.446 23.8592 164.69 24.5952C165.941 25.3238 166.905 26.3468 167.582 27.6642C168.26 28.9742 168.598 30.5051 168.598 32.2567C168.598 33.9936 168.26 35.5207 167.582 36.8381C166.905 38.1481 165.941 39.1711 164.69 39.9071C163.446 40.6357 161.967 41 160.252 41ZM160.274 37.3569C161.054 37.3569 161.706 37.1362 162.228 36.6946C162.751 36.2456 163.145 35.6348 163.41 34.862C163.682 34.0892 163.818 33.2098 163.818 32.2236C163.818 31.2374 163.682 30.3579 163.41 29.5851C163.145 28.8123 162.751 28.2015 162.228 27.7525C161.706 27.3036 161.054 27.0791 160.274 27.0791C159.487 27.0791 158.824 27.3036 158.287 27.7525C157.757 28.2015 157.356 28.8123 157.084 29.5851C156.819 30.3579 156.686 31.2374 156.686 32.2236C156.686 33.2098 156.819 34.0892 157.084 34.862C157.356 35.6348 157.757 36.2456 158.287 36.6946C158.824 37.1362 159.487 37.3569 160.274 37.3569Z" fill="#000000"/>
<path d="M176.359 18.0598V40.6688H171.656V18.0598H176.359Z" fill="#000000"/>
<path d="M186.375 40.9448C185.087 40.9448 183.92 40.6136 182.875 39.9512C181.837 39.2815 181.013 38.299 180.402 37.0037C179.799 35.701 179.497 34.104 179.497 32.2125C179.497 30.2695 179.81 28.6541 180.435 27.3661C181.061 26.0708 181.893 25.103 182.93 24.4627C183.975 23.8151 185.12 23.4913 186.364 23.4913C187.313 23.4913 188.104 23.6532 188.737 23.977C189.377 24.2935 189.893 24.6909 190.283 25.1693C190.68 25.6403 190.982 26.104 191.188 26.5603H191.331V18.0598H196.023V40.6688H191.387V37.9531H191.188C190.967 38.4241 190.654 38.8914 190.249 39.3551C189.852 39.8114 189.333 40.1904 188.693 40.4922C188.06 40.7939 187.287 40.9448 186.375 40.9448ZM187.865 37.2024C188.623 37.2024 189.263 36.9963 189.786 36.5842C190.316 36.1647 190.72 35.5796 191 34.8289C191.287 34.0782 191.431 33.1987 191.431 32.1904C191.431 31.1822 191.291 30.3063 191.011 29.563C190.732 28.8197 190.327 28.2456 189.797 27.8408C189.267 27.4361 188.623 27.2337 187.865 27.2337C187.092 27.2337 186.441 27.4434 185.911 27.8629C185.381 28.2824 184.98 28.8638 184.708 29.6072C184.435 30.3505 184.299 31.2116 184.299 32.1904C184.299 33.1766 184.435 34.0488 184.708 34.8068C184.987 35.5575 185.388 36.1463 185.911 36.5731C186.441 36.9926 187.092 37.2024 187.865 37.2024Z" fill="#000000"/>
<path d="M186.375 40.9448C185.087 40.9448 183.92 40.6136 182.875 39.9512C181.837 39.2815 181.013 38.299 180.402 37.0037C179.799 35.701 179.497 34.104 179.497 32.2125C179.497 30.2695 179.81 28.6541 180.435 27.3661C181.061 26.0708 181.893 25.103 182.93 24.4627C183.975 23.8151 185.12 23.4913 186.364 23.4913C187.313 23.4913 188.104 23.6532 188.737 23.977C189.377 24.2935 189.893 24.6909 190.283 25.1693C190.68 25.6403 190.982 26.104 191.188 26.5603H191.331V18.0598H196.023V40.6688H191.387V37.9531H191.188C190.967 38.4241 190.654 38.8914 190.249 39.3551C189.852 39.8114 189.333 40.1904 188.693 40.4922C188.06 40.7939 187.287 40.9448 186.375 40.9448ZM187.865 37.2024C188.623 37.2024 189.263 36.9963 189.786 36.5842C190.316 36.1647 190.72 35.5796 191 34.8289C191.287 34.0782 191.431 33.1987 191.431 32.1904C191.431 31.1822 191.291 30.3063 191.011 29.563C190.732 28.8197 190.327 28.2456 189.797 27.8408C189.267 27.4361 188.623 27.2337 187.865 27.2337C187.092 27.2337 186.441 27.4434 185.911 27.8629C185.381 28.2824 184.98 28.8638 184.708 29.6072C184.435 30.3505 184.299 31.2116 184.299 32.1904C184.299 33.1766 184.435 34.0488 184.708 34.8068C184.987 35.5575 185.388 36.1463 185.911 36.5731C186.441 36.9926 187.092 37.2024 187.865 37.2024Z" fill="#000000"/>
<path d="M114.884 40.9451C113.596 40.9451 112.429 40.6139 111.384 39.9515C110.346 39.2818 109.522 38.2993 108.911 37.004C108.308 35.7013 108.006 34.1042 108.006 32.2128C108.006 30.2698 108.319 28.6544 108.944 27.3664C109.57 26.0711 110.401 25.1033 111.439 24.463C112.484 23.8154 113.629 23.4915 114.872 23.4915C115.822 23.4915 116.613 23.6535 117.246 23.9773C117.886 24.2937 118.401 24.6912 118.792 25.1696C119.189 25.6406 119.491 26.1042 119.697 26.5605H119.84V23.4914H124.532V40.6691H119.895V37.9534H119.697C119.476 38.4244 119.163 38.8917 118.758 39.3554C118.361 39.8117 117.842 40.1907 117.202 40.4925C116.569 40.7942 115.796 40.9451 114.884 40.9451ZM116.374 37.2027C117.132 37.2027 117.772 36.9966 118.295 36.5845C118.825 36.165 119.229 35.5799 119.509 34.8292C119.796 34.0785 119.94 33.199 119.94 32.1907C119.94 31.1824 119.8 30.3066 119.52 29.5633C119.24 28.82 118.836 28.2459 118.306 27.8411C117.776 27.4363 117.132 27.2339 116.374 27.2339C115.601 27.2339 114.95 27.4437 114.42 27.8632C113.89 28.2827 113.489 28.8641 113.217 29.6075C112.944 30.3508 112.808 31.2119 112.808 32.1907C112.808 33.1769 112.944 34.049 113.217 34.8071C113.496 35.5578 113.897 36.1466 114.42 36.5734C114.95 36.9929 115.601 37.2027 116.374 37.2027Z" fill="#000000"/>
</svg>
